<mxfile host="app.diagrams.net" modified="2024-05-08T22:31:38.825Z" agent="Mozilla/5.0 (Windows NT 10.0; Win64; x64) AppleWebKit/537.36 (KHTML, like Gecko) Chrome/124.0.0.0 Safari/537.36" etag="opfyDv3l0bmoOCv8OoGl" version="24.3.1" type="device">
  <diagram id="C5RBs43oDa-KdzZeNtuy" name="Page-1">
    <mxGraphModel dx="1050" dy="1726" grid="1" gridSize="10" guides="1" tooltips="1" connect="1" arrows="1" fold="1" page="1" pageScale="1" pageWidth="827" pageHeight="1169" math="0" shadow="0">
      <root>
        <mxCell id="WIyWlLk6GJQsqaUBKTNV-0" />
        <mxCell id="WIyWlLk6GJQsqaUBKTNV-1" parent="WIyWlLk6GJQsqaUBKTNV-0" />
        <mxCell id="QNXIp8hqObAiTr5SvMTQ-2" style="edgeStyle=orthogonalEdgeStyle;rounded=0;orthogonalLoop=1;jettySize=auto;html=1;exitX=0.5;exitY=1;exitDx=0;exitDy=0;entryX=0.5;entryY=0;entryDx=0;entryDy=0;" parent="WIyWlLk6GJQsqaUBKTNV-1" source="QNXIp8hqObAiTr5SvMTQ-0" target="QNXIp8hqObAiTr5SvMTQ-1" edge="1">
          <mxGeometry relative="1" as="geometry" />
        </mxCell>
        <mxCell id="QNXIp8hqObAiTr5SvMTQ-0" value="Inicio" style="ellipse;whiteSpace=wrap;html=1;" parent="WIyWlLk6GJQsqaUBKTNV-1" vertex="1">
          <mxGeometry x="330" y="-910" width="100" height="60" as="geometry" />
        </mxCell>
        <mxCell id="QNXIp8hqObAiTr5SvMTQ-4" style="edgeStyle=orthogonalEdgeStyle;rounded=0;orthogonalLoop=1;jettySize=auto;html=1;exitX=1;exitY=0.5;exitDx=0;exitDy=0;" parent="WIyWlLk6GJQsqaUBKTNV-1" source="QNXIp8hqObAiTr5SvMTQ-1" edge="1">
          <mxGeometry relative="1" as="geometry">
            <mxPoint x="480" y="-770" as="targetPoint" />
          </mxGeometry>
        </mxCell>
        <mxCell id="QNXIp8hqObAiTr5SvMTQ-10" style="edgeStyle=orthogonalEdgeStyle;rounded=0;orthogonalLoop=1;jettySize=auto;html=1;exitX=0.5;exitY=1;exitDx=0;exitDy=0;entryX=0.5;entryY=0;entryDx=0;entryDy=0;" parent="WIyWlLk6GJQsqaUBKTNV-1" source="QNXIp8hqObAiTr5SvMTQ-1" target="QNXIp8hqObAiTr5SvMTQ-8" edge="1">
          <mxGeometry relative="1" as="geometry" />
        </mxCell>
        <mxCell id="QNXIp8hqObAiTr5SvMTQ-1" value="a&amp;gt;0 &amp;amp;&amp;amp; b&amp;gt;0" style="rhombus;whiteSpace=wrap;html=1;" parent="WIyWlLk6GJQsqaUBKTNV-1" vertex="1">
          <mxGeometry x="330" y="-820" width="100" height="100" as="geometry" />
        </mxCell>
        <mxCell id="QNXIp8hqObAiTr5SvMTQ-9" style="edgeStyle=orthogonalEdgeStyle;rounded=0;orthogonalLoop=1;jettySize=auto;html=1;exitX=1;exitY=0.5;exitDx=0;exitDy=0;" parent="WIyWlLk6GJQsqaUBKTNV-1" edge="1">
          <mxGeometry relative="1" as="geometry">
            <mxPoint x="620" y="-770" as="sourcePoint" />
            <mxPoint x="680" y="-770" as="targetPoint" />
          </mxGeometry>
        </mxCell>
        <mxCell id="QNXIp8hqObAiTr5SvMTQ-5" value="Si" style="text;html=1;align=center;verticalAlign=middle;resizable=0;points=[];autosize=1;strokeColor=none;fillColor=none;" parent="WIyWlLk6GJQsqaUBKTNV-1" vertex="1">
          <mxGeometry x="435" y="-802" width="30" height="30" as="geometry" />
        </mxCell>
        <mxCell id="QNXIp8hqObAiTr5SvMTQ-18" style="edgeStyle=orthogonalEdgeStyle;rounded=0;orthogonalLoop=1;jettySize=auto;html=1;exitX=0.5;exitY=1;exitDx=0;exitDy=0;entryX=1;entryY=0.5;entryDx=0;entryDy=0;" parent="WIyWlLk6GJQsqaUBKTNV-1" target="QNXIp8hqObAiTr5SvMTQ-15" edge="1">
          <mxGeometry relative="1" as="geometry">
            <mxPoint x="740" y="-740" as="sourcePoint" />
          </mxGeometry>
        </mxCell>
        <mxCell id="QNXIp8hqObAiTr5SvMTQ-13" style="edgeStyle=orthogonalEdgeStyle;rounded=0;orthogonalLoop=1;jettySize=auto;html=1;exitX=0;exitY=0.5;exitDx=0;exitDy=0;entryX=1;entryY=0.5;entryDx=0;entryDy=0;" parent="WIyWlLk6GJQsqaUBKTNV-1" source="QNXIp8hqObAiTr5SvMTQ-8" edge="1">
          <mxGeometry relative="1" as="geometry">
            <mxPoint x="280" y="-647" as="targetPoint" />
          </mxGeometry>
        </mxCell>
        <mxCell id="QNXIp8hqObAiTr5SvMTQ-21" value="" style="edgeStyle=orthogonalEdgeStyle;rounded=0;orthogonalLoop=1;jettySize=auto;html=1;" parent="WIyWlLk6GJQsqaUBKTNV-1" source="QNXIp8hqObAiTr5SvMTQ-8" edge="1">
          <mxGeometry relative="1" as="geometry">
            <mxPoint x="280" y="-647" as="targetPoint" />
          </mxGeometry>
        </mxCell>
        <mxCell id="QNXIp8hqObAiTr5SvMTQ-23" style="edgeStyle=orthogonalEdgeStyle;rounded=0;orthogonalLoop=1;jettySize=auto;html=1;exitX=1;exitY=0.5;exitDx=0;exitDy=0;entryX=0;entryY=0.5;entryDx=0;entryDy=0;" parent="WIyWlLk6GJQsqaUBKTNV-1" source="QNXIp8hqObAiTr5SvMTQ-8" target="QNXIp8hqObAiTr5SvMTQ-15" edge="1">
          <mxGeometry relative="1" as="geometry" />
        </mxCell>
        <mxCell id="QNXIp8hqObAiTr5SvMTQ-8" value="b == 0" style="rhombus;whiteSpace=wrap;html=1;" parent="WIyWlLk6GJQsqaUBKTNV-1" vertex="1">
          <mxGeometry x="335" y="-692" width="90" height="90" as="geometry" />
        </mxCell>
        <mxCell id="QNXIp8hqObAiTr5SvMTQ-11" value="No" style="text;html=1;align=center;verticalAlign=middle;resizable=0;points=[];autosize=1;strokeColor=none;fillColor=none;" parent="WIyWlLk6GJQsqaUBKTNV-1" vertex="1">
          <mxGeometry x="340" y="-712" width="40" height="30" as="geometry" />
        </mxCell>
        <mxCell id="QNXIp8hqObAiTr5SvMTQ-14" value="Si" style="text;html=1;align=center;verticalAlign=middle;resizable=0;points=[];autosize=1;strokeColor=none;fillColor=none;" parent="WIyWlLk6GJQsqaUBKTNV-1" vertex="1">
          <mxGeometry x="300" y="-677" width="30" height="30" as="geometry" />
        </mxCell>
        <mxCell id="QNXIp8hqObAiTr5SvMTQ-15" value="Fin" style="ellipse;whiteSpace=wrap;html=1;" parent="WIyWlLk6GJQsqaUBKTNV-1" vertex="1">
          <mxGeometry x="480" y="-664" width="100" height="62" as="geometry" />
        </mxCell>
        <mxCell id="QNXIp8hqObAiTr5SvMTQ-24" value="No" style="text;html=1;align=center;verticalAlign=middle;resizable=0;points=[];autosize=1;strokeColor=none;fillColor=none;" parent="WIyWlLk6GJQsqaUBKTNV-1" vertex="1">
          <mxGeometry x="420" y="-672" width="40" height="30" as="geometry" />
        </mxCell>
        <mxCell id="K9OL-NJnl3enfOltVbcg-0" value="Calcular a / b&lt;div&gt;Asignar el resultado a re&lt;/div&gt;" style="rounded=0;whiteSpace=wrap;html=1;" vertex="1" parent="WIyWlLk6GJQsqaUBKTNV-1">
          <mxGeometry x="490" y="-802" width="140" height="62" as="geometry" />
        </mxCell>
        <mxCell id="K9OL-NJnl3enfOltVbcg-1" value="Imprimir re" style="shape=parallelogram;perimeter=parallelogramPerimeter;whiteSpace=wrap;html=1;fixedSize=1;" vertex="1" parent="WIyWlLk6GJQsqaUBKTNV-1">
          <mxGeometry x="680" y="-800" width="120" height="60" as="geometry" />
        </mxCell>
        <mxCell id="K9OL-NJnl3enfOltVbcg-3" style="edgeStyle=orthogonalEdgeStyle;rounded=0;orthogonalLoop=1;jettySize=auto;html=1;exitX=0.5;exitY=1;exitDx=0;exitDy=0;entryX=0.5;entryY=1;entryDx=0;entryDy=0;" edge="1" parent="WIyWlLk6GJQsqaUBKTNV-1" source="K9OL-NJnl3enfOltVbcg-2" target="QNXIp8hqObAiTr5SvMTQ-15">
          <mxGeometry relative="1" as="geometry" />
        </mxCell>
        <mxCell id="K9OL-NJnl3enfOltVbcg-2" value="Mostrar&amp;nbsp;&quot;Impossible&quot;" style="shape=parallelogram;perimeter=parallelogramPerimeter;whiteSpace=wrap;html=1;fixedSize=1;" vertex="1" parent="WIyWlLk6GJQsqaUBKTNV-1">
          <mxGeometry x="150" y="-677" width="140" height="57" as="geometry" />
        </mxCell>
      </root>
    </mxGraphModel>
  </diagram>
</mxfile>
